HIERARCHY
ROOT SpineBase
{
  OFFSET 0.000000 0.000000 0.000000
  CHANNELS 6 Xposition Yposition Zposition Zrotation Xrotation Yrotation
  JOINT SpineMid
  {
    OFFSET 0.000000 35.017407 0.000000
    CHANNELS 3 Zrotation Xrotation Yrotation
    JOINT SpineShoulder
    {
      OFFSET 0.023714 25.569230 -0.893820
      CHANNELS 3 Zrotation Xrotation Yrotation
      JOINT Neck
      {
        OFFSET -0.067519 8.394367 -0.730814
        CHANNELS 3 Zrotation Xrotation Yrotation
        JOINT Head
        {
          OFFSET -5.284552 9.635716 6.776279
          CHANNELS 3 Zrotation Xrotation Yrotation
          End Site
          {
            OFFSET 0 0 0
          }
        }
      }
      JOINT ShoulderLeft
      {
        OFFSET -9.538306 -6.114411 -10.127276
        CHANNELS 3 Zrotation Xrotation Yrotation
        JOINT ElbowLeft
        {
          OFFSET -5.857812 -25.972831 -3.335210
          CHANNELS 3 Zrotation Xrotation Yrotation
          JOINT WristLeft
          {
            OFFSET -7.551139 -25.270281 -3.146541
            CHANNELS 3 Zrotation Xrotation Yrotation
            JOINT HandLeft
            {
              OFFSET -6.038504 -8.656118 -0.380339
              CHANNELS 3 Zrotation Xrotation Yrotation
              JOINT HandTipLeft
              {
                OFFSET -3.314345 -6.018744 -1.853294
                CHANNELS 3 Zrotation Xrotation Yrotation
                End Site
                {
                  OFFSET 0 0 0
                }
              }
              JOINT ThumbLeft
              {
                OFFSET 4.805949 0.079149 -1.925568
                CHANNELS 3 Zrotation Xrotation Yrotation
                End Site
                {
                  OFFSET 0 0 0
                }
              }
            }
          }
        }
      }
      JOINT ShoulderRight
      {
        OFFSET 10.110630 -2.095667 2.737340
        CHANNELS 3 Zrotation Xrotation Yrotation
        JOINT ElbowRight
        {
          OFFSET -18.228780 -15.918974 -13.137251
          CHANNELS 3 Zrotation Xrotation Yrotation
          JOINT WristRight
          {
            OFFSET -10.804605 -23.827055 -5.321534
            CHANNELS 3 Zrotation Xrotation Yrotation
            JOINT HandRight
            {
              OFFSET -3.737657 -9.600088 0.819844
              CHANNELS 3 Zrotation Xrotation Yrotation
              JOINT HandTipRight
              {
                OFFSET -5.808938 -6.143114 -1.393461
                CHANNELS 3 Zrotation Xrotation Yrotation
                End Site
                {
                  OFFSET 0 0 0
                }
              }
              JOINT ThumbRight
              {
                OFFSET -4.132007 2.032490 -1.666785
                CHANNELS 3 Zrotation Xrotation Yrotation
                End Site
                {
                  OFFSET 0 0 0
                }
              }
            }
          }
        }
      }
    }
  }
  JOINT HipLeft
  {
    OFFSET -5.162874 0.530263 -5.257613
    CHANNELS 3 Zrotation Xrotation Yrotation
    JOINT KneeLeft
    {
      OFFSET 16.636300 -36.219291 7.768483
      CHANNELS 3 Zrotation Xrotation Yrotation
      JOINT AnkleLeft
      {
        OFFSET 2.327505 -30.319145 -1.925176
        CHANNELS 3 Zrotation Xrotation Yrotation
        JOINT FootLeft
        {
          OFFSET 7.734553 -2.760661 -10.883019
          CHANNELS 3 Zrotation Xrotation Yrotation
          End Site
          {
            OFFSET 0 0 0
          }
        }
      }
    }
  }
  JOINT HipRight
  {
    OFFSET 5.668000 1.570325 -2.603270
    CHANNELS 3 Zrotation Xrotation Yrotation
    JOINT KneeRight
    {
      OFFSET -3.072306 -31.253057 -3.119101
      CHANNELS 3 Zrotation Xrotation Yrotation
      JOINT AnkleRight
      {
        OFFSET 3.542994 -32.693497 -13.996033
        CHANNELS 3 Zrotation Xrotation Yrotation
        JOINT FootRight
        {
          OFFSET -0.632188 -6.600660 -2.791370
          CHANNELS 3 Zrotation Xrotation Yrotation
          End Site
          {
            OFFSET 0 0 0
          }
        }
      }
    }
  }
}
MOTION
Frames: 6
Frame Time: 0.033333
-16.970972 69.798131 294.075882 -0.000000 0.000000 -13.770189 0.000000 0.000000 13.770189 -0.000000 0.000000 0.000000 -0.000000 0.000000 0.000000 0.000000 0.000000 0.000000 -0.000000 0.000000 0.000000 -0.000000 0.000000 0.000000 -0.000000 0.000000 0.000000 -0.000000 0.000000 0.000000 0.000000 0.000000 0.000000 0.000000 0.000000 0.000000 -0.000000 0.000000 0.000000 -0.000000 0.000000 0.000000 -0.000000 0.000000 0.000000 -0.000000 0.000000 0.000000 0.000000 0.000000 0.000000 0.000000 0.000000 0.000000 0.000000 0.000000 13.770189 -0.000000 0.000000 0.000000 -0.000000 0.000000 0.000000 0.000000 0.000000 0.000000 0.000000 0.000000 13.770189 -0.000000 0.000000 0.000000 -0.000000 0.000000 0.000000 0.000000 0.000000 0.000000
-16.932896 69.835135 294.443774 0.228163 -0.113323 -13.610988 -0.248423 0.056446 13.611336 -0.000000 0.000000 0.000000 -1.309042 2.619735 2.364013 0.000000 0.000000 0.000000 -0.000000 0.000000 0.000000 2.026212 -0.125763 -0.213675 -2.982975 2.309794 -1.241980 1.467975 1.680054 -0.768612 0.000000 0.000000 0.000000 0.000000 0.000000 0.000000 0.429840 0.254091 -0.648234 -0.426942 -0.258930 0.646316 1.201343 1.204723 -0.380987 5.417915 0.861366 -3.231573 0.000000 0.000000 0.000000 0.000000 0.000000 0.000000 -0.248423 0.056446 13.611336 0.543183 0.652878 0.012525 -3.180542 -0.383508 11.716871 0.000000 0.000000 0.000000 12.730799 -0.247155 12.693761 -18.821178 1.229653 4.042182 -5.778433 6.355487 2.879269 0.000000 0.000000 0.000000
-16.952867 69.856847 294.742084 0.416177 -0.190970 -13.482985 0.425640 0.131753 13.512584 -0.860720 0.162537 -0.029020 -2.266181 4.524232 4.094844 0.000000 0.000000 0.000000 0.915418 -0.650522 0.034449 2.510823 0.462717 -0.431953 -5.248628 4.499116 -2.465675 2.857177 2.169614 -0.819384 0.000000 0.000000 0.000000 0.000000 0.000000 0.000000 0.787205 0.501187 -1.232210 -0.776277 -0.517952 1.225258 2.572499 2.195740 -0.691735 9.740342 1.492966 -6.167205 0.000000 0.000000 0.000000 0.000000 0.000000 0.000000 -0.734221 -0.822053 13.000740 1.531654 1.957266 0.471737 -6.078170 -0.809847 22.849675 0.000000 0.000000 0.000000 24.815546 -0.796734 11.798408 -35.476542 1.874362 8.321356 -7.654270 12.223774 4.801906 0.000000 0.000000 0.000000
-17.030886 69.863265 294.970811 0.563148 -0.232490 -13.390229 0.533807 0.169757 13.428633 -1.121627 0.191726 -0.037513 -2.846132 5.810053 5.216783 0.000000 0.000000 0.000000 1.372059 -0.930070 0.044877 2.829373 0.751504 -0.560451 -6.713805 6.361798 -3.555065 4.091037 1.875142 -0.418085 0.000000 0.000000 0.000000 0.000000 0.000000 0.000000 1.071589 0.742956 -1.751328 -1.048480 -0.775230 1.737287 4.071377 2.876222 -0.888651 12.386255 1.987216 -8.578701 0.000000 0.000000 0.000000 0.000000 0.000000 0.000000 -0.939476 -1.110254 12.755285 2.125964 2.538722 0.590247 -8.445351 -1.081855 32.330075 0.000000 0.000000 0.000000 35.027672 -1.491240 11.206644 -48.970345 1.871545 12.226565 -6.809076 18.114513 5.545138 0.000000 0.000000 0.000000
-17.166951 69.854390 295.129957 0.668493 -0.237702 -13.335453 0.575086 0.189656 13.378965 -1.271674 0.186779 -0.042558 -3.036916 6.545095 5.750752 0.000000 0.000000 0.000000 1.827838 -1.179120 0.050266 2.526047 1.084039 -0.619411 -7.312840 7.683173 -4.395933 5.117519 1.112492 0.194171 0.000000 0.000000 0.000000 0.000000 0.000000 0.000000 1.282599 0.980860 -2.205122 -1.244111 -1.029242 2.182967 5.632019 3.160359 -0.924753 13.035131 2.504379 -10.350145 0.000000 0.000000 0.000000 0.000000 0.000000 0.000000 -1.030753 -1.314415 12.609460 2.607184 2.853382 0.636882 -10.235265 -0.990400 39.732847 0.000000 0.000000 0.000000 42.925109 -2.182589 10.915979 -59.076922 1.518979 15.372441 -3.680389 24.433510 4.883766 0.000000 0.000000 0.000000
-17.361064 69.830221 295.219520 0.731946 -0.206700 -13.319917 0.551290 0.191744 13.364908 -1.312463 0.148166 -0.044323 -2.831406 6.764527 5.708420 0.000000 0.000000 0.000000 2.282656 -1.397678 0.050236 1.600525 1.461724 -0.599798 -7.011298 8.301953 -4.904903 5.909869 0.063718 0.852328 0.000000 0.000000 0.000000 0.000000 0.000000 0.000000 1.419911 1.216136 -2.593213 -1.363777 -1.278770 2.562922 7.171665 2.991592 -0.759467 11.586346 3.195927 -11.415478 0.000000 0.000000 0.000000 0.000000 0.000000 0.000000 -1.004673 -1.431853 12.566565 2.974323 2.900661 0.615335 -11.520966 -0.410210 45.132634 0.000000 0.000000 0.000000 48.629763 -2.794876 10.865440 -66.102479 1.169722 17.673958 2.153058 31.343353 2.164574 0.000000 0.000000 0.000000
